<?xml version="1.0" encoding="UTF-8"?>
<svg xmlns="http://www.w3.org/2000/svg" viewBox="0 0 261.7158 44.7686" width="200" height="34.2">
    <path d="M224.4746,21.0303l-14.0351-.0049c-.6905,0-1.2539-.5664-1.2539-1.2539V7.5274c0-.1729.0371-.3369.1005-.4864.1915-.4394.6338-.7529,1.1465-.7529l14.0352-.0049c.6855,0,1.249-.5615,1.249-1.249V1.2637c0-.6885-.5635-1.2539-1.249-1.2539l.0068-.0049h-23.9209c-.3457,0-.6621.1445-.8886.3691-.2295.2295-.3721.543-.3721.8897v24.7959c0,.6875.5635,1.249,1.2539,1.249h23.9209l-.0068-.0049h.0136c.6856,0,1.249-.5664,1.249-1.2539v-3.7705c0-.6885-.5634-1.249-1.249-1.249"
          style="fill:#1d1d1b;"/>
    <path d="M45.8711,18.0449c0-.6923.5606-1.2539,1.2481-1.2539h19.2851c.6875,0,1.25-.5615,1.25-1.249v-3.7754c0-.6875-.5625-1.249-1.25-1.249h-19.2851c-.6875,0-1.2481-.5615-1.2481-1.249v-1.7412c0-.6875.5606-1.2539,1.2481-1.2539h19.414c.6875,0,1.2481-.5606,1.252-1.2442V1.2539c0-.6875-.5606-1.249-1.2481-1.249h-29.2949c-.6914,0-1.25.5615-1.25,1.249v24.8008c0,.6875.5586,1.2539,1.25,1.2539h29.291c.6875,0,1.2481-.5664,1.252-1.2539v-3.7715c0-.6875-.5606-1.249-1.2481-1.249h-19.4179c-.6875,0-1.2481-.5654-1.2481-1.2539v-1.7354"
          style="fill:#1d1d1b;"/>
    <path d="M30.6201.0049h-7.373c-.6895,0-1.2539.5615-1.2539,1.249v7.8789l-.0088.1397c0,.6885-.5645,1.25-1.252,1.25h-9.5879c-.6884,0-1.249-.5615-1.249-1.25v-.1397l-.0146-.1035V1.2539C9.8809.5664,9.3194.0049,8.6299.0049H1.252C.5645.0049,0,.5664,0,1.2539v24.8008c0,.6924.5645,1.2539,1.252,1.2539h7.3779c.6895,0,1.251-.5615,1.251-1.2539v-7.2754h.0146v-.833c0-.6924.5606-1.2578,1.249-1.2578h9.5879c.6875,0,1.252.5654,1.252,1.2578l.0088.833-.1865,7.2754c0,.6924.7509,1.2539,1.4404,1.2539h7.373c.6885,0,1.252-.5615,1.252-1.2539V1.2539C31.8721.5664,31.3086.0049,30.6201.0049"
          style="fill:#1d1d1b;"/>
    <path d="M260.4658.0049h-7.3769c-.6904,0-1.252.5615-1.252,1.249v7.8789l-.0117.1397c0,.6885-.5615,1.25-1.2471,1.25h-9.5908c-.6855,0-1.249-.5615-1.249-1.25v-.1397l-.0137-.1035V1.2539c0-.6875-.5664-1.249-1.2539-1.249h-7.373c-.6924,0-1.2539.5615-1.2539,1.249v24.8008c0,.6924.5615,1.2539,1.2539,1.2539h7.373c.6875,0,1.2539-.5615,1.2539-1.2539v-7.2754h.0137v-.833c0-.6924.5635-1.2578,1.249-1.2578h9.5908c.6856,0,1.2471.5654,1.2471,1.2578l.0117.833-.1914,7.2754c0,.6924.753,1.2539,1.4434,1.2539h7.3769c.6885,0,1.25-.5615,1.25-1.2539V1.2539c0-.6875-.5615-1.249-1.25-1.249"
          style="fill:#1d1d1b;"/>
    <path d="M101.3916,14.9287l-.0683-.0234-.0538-.042c-.1123-.0889-.1875-.2519-.1777-.3838,0-.0371.0049-.0693.0117-.1025,1.7012-1.4834,2.7744-3.6631,2.7744-6.0957C103.8779,3.8135,100.2569.0049,95.7891.0049h0l-15.1231.0049c-.0468-.0049-.0888-.0098-.1338-.0098h-7.375c-.6904,0-1.2519.5664-1.2519,1.2539v24.8008c0,.1074.0146.21.0381.3135l-.0166.0605c.0439.2481.3203.5987.7343.7715.0049.0049.0118.0049.0186.0098.0186.0049.042.0137.0615.0234.0225.0049.042.0137.0606.0186.0166.0049.0283.0097.0439.0097.0264.0088.0469.0137.0733.0186.0341.0088.0693.0137.1045.0137,0,.0049.0048.0049.0048.0049.0518.0048.0987.0097.1475.0097h7.3779c.1358,0,.2647-.0234.3907-.0654l.0117.0039c.4843-.0039.8838-.4023.8838-.8838v-8c.0029-.8887.7236-1.6143,1.6171-1.6143h8.2383c.9473,0,1.5762.4727,1.8946.9874.33.5234.3974,1.0527.4023,1.333v7.2939c0,.4815.4004.8799.8818.8838h8.2061c.4824-.0039.8818-.4023.8818-.8838v-7.1865c.003-.3223-.0468-3.499-2.5703-4.2481M92.4014,12.6045c-.0811.0137-.166.0225-.2569.0225h-8.7421c-.8135,0-1.4873-.6074-1.5997-1.3936v-3.6543c.1124-.7861.7862-1.3945,1.5997-1.3945h8.7421c.087,0,.168.0049.2452.0146,1.5957.1407,2.8496,1.4786,2.8496,3.1114,0,1.6279-1.2471,3.1484-2.8379,3.2939Z"
          style="fill:#1d1d1b;"/>
    <path d="M136.5684.0049h-29.2364c-.6855,0-1.25.5615-1.25,1.249v3.7901c0,.6875.5645,1.249,1.25,1.249h6.8282v.0039h1.6308c.6602,0,1.2071.5244,1.2442,1.1797v18.5781c0,.6924.5605,1.2539,1.25,1.2539h7.375c.6875,0,1.248-.5615,1.248-1.2539V7.542c0-.6875.5606-1.249,1.2451-1.249h1.6328l6.8252-.0049c.6875,0,1.2491-.5615,1.2491-1.249V1.249c0-.6875-.6035-1.2441-1.292-1.2441"
          style="fill:#1d1d1b;"/>
    <path d="M195.1719,1.2539c0-.6875-.5635-1.2539-1.252-1.2539h-7.375c-.6923,0-1.2519.5664-1.2519,1.2539v24.8008c0,.6875.5596,1.2539,1.2519,1.2539h7.375c.6885,0,1.252-.5664,1.252-1.2539V1.2539"
          style="fill:#1d1d1b;"/>
    <path d="M182.3154,1.3242c0-.7294-.6035-1.3193-1.3457-1.3193h-7.2656c-.542,0-1.0078.3135-1.2207.7676l-.0068.0137-.0606.164-2.9941,17.8574c-.0264.1172-.1338.2061-.2627.2061-.1211,0-.2217-.0801-.2549-.1875l-3.2256-11.668-.0635-.1875-.0039-.0088h-.0029c-.206-.4443-.6592-.7578-1.1855-.7724h-5.4834c-.5313.0146-.9825.3281-1.1885.7724h0l-.0049.0088-.0674.1875-2.9121,11.668h-.0029c-.0303.1074-.1309.1875-.2549.1875-.1289,0-.2363-.0889-.2617-.2061l-3.1787-17.8574-.0635-.164-.002-.0137h-.0029c-.2129-.4541-.6758-.7676-1.2207-.7676h-7.4551c-.7392,0-1.3427.5899-1.3427,1.3193,0,.1407.0234.2803.0654.4073l5.2441,24.7256c.1895.4814.6553.8281,1.2032.8515h.0136c.0137,0,.0283.0039.044.0039.0146,0,.0312-.0039.0429-.0039h10.2334c.0186,0,.0352.0039.0538.0039.5761,0,1.0673-.3554,1.2587-.8554h.002s2.457-9.3477,2.459-9.3663c.0351-.1035.1328-.1826.25-.1826.1474,0,.2666.1221.2666.2617v.0049l1.8525,9.2823c.1924.5.6836.8554,1.2569.8554.0185,0,.0371-.0039.0585-.0039h10.7901c.0146,0,.0264.0039.042.0039.0146,0,.0312-.0039.0469-.0039h.0117c.5478-.0234,1.0127-.3701,1.2002-.8515l4.875-24.7256h-.0049c.0469-.127.0683-.2666.0683-.4073"
          style="fill:#1d1d1b;"/>
    <path d="M183.8643,11.3125c-.002.0147-.0069.0332-.0088.0469"
          style="fill:none; stroke:#fff; stroke-linecap:round; stroke-linejoin:round;"/>
    <path d="M.001,39.5889c0-.6826.54-1.2441,1.207-1.2441h259.3037c.6621,0,1.2041.5615,1.2041,1.2441v3.9394c0,.6827-.542,1.2403-1.2041,1.2403H1.208C.541,44.7686.001,44.211.001,43.5283v-3.9394"
          style="fill:#0075bf;"/>
</svg>
